<svg xmlns="http://www.w3.org/2000/svg" xmlns:xlink="http://www.w3.org/1999/xlink" version="1.1" width="1000" height="1000" viewBox="0 0 1000 1000" xml:space="preserve">
<desc>Created with Fabric.js 3.5.0</desc>
<defs>
</defs>
<rect x="0" y="0" width="100%" height="100%" fill="rgba(255,255,255,0)"/>
<g transform="matrix(11.3604 0 0 6.4981 498.533 493.8556)" id="672105">
<path style="stroke: none; stroke-width: 0; stroke-dasharray: none; stroke-linecap: butt; stroke-dashoffset: 0; stroke-linejoin: miter; stroke-miterlimit: 4; is-custom-font: none; font-file-url: none; fill: rgb(0,0,0); fill-rule: nonzero; opacity: 1;" vector-effect="non-scaling-stroke" transform=" translate(-46.5001, -78.5)" d="M 2.6167 78.5 C 2.6167 57.2341 7.7391 38.064 15.8764 24.2946 C 24.0482 10.4665 34.9664 2.5 46.5001 2.5 C 58.0338 2.5 68.952 10.4665 77.1238 24.2946 C 85.2611 38.064 90.3835 57.2341 90.3835 78.5 C 90.3835 99.7659 85.2611 118.936 77.1238 132.705 C 68.952 146.533 58.0338 154.5 46.5001 154.5 C 34.9664 154.5 24.0482 146.533 15.8764 132.705 C 7.7391 118.936 2.6167 99.7659 2.6167 78.5 Z" stroke-linecap="round"/>
</g>
<g transform="matrix(0.3202 0 0 0.3202 501.8303 497.1805)" id="483664">
<g style="" vector-effect="non-scaling-stroke">
		<g transform="matrix(3.2741 0 0 3.2741 388.2963 0.9405)" id="path4155">
<path style="stroke: rgb(0,0,0); stroke-width: 1; stroke-dasharray: none; stroke-linecap: butt; stroke-dashoffset: 0; stroke-linejoin: miter; stroke-miterlimit: 4; is-custom-font: none; font-file-url: none; fill: rgb(177,6,15); fill-rule: nonzero; opacity: 1;" transform=" translate(-6.0174, 32.481)" d="M -52.5 -412.3 l -0.3 168 l -0.3 168 l -13.8 -39 v -0.1 l -17.9 374 c 17.6 49.6 27 76.1 27.1 76.2 c 0.1 0.1 10.1 0.7 22.2 1.3 c 36.6 1.8 82 5.7 116.5 10 c 8 1 14.8 1.5 15.3 1.1 s 0.6 -171.4 0.5 -380.1 l -0.3 -379.4 h -149 z" stroke-linecap="round"/>
</g>
		<g transform="matrix(3.2741 0 0 3.2741 -383.4659 -0.0333)" id="path4157">
<path style="stroke: rgb(0,0,0); stroke-width: 1; stroke-dasharray: none; stroke-linecap: butt; stroke-dashoffset: 0; stroke-linejoin: miter; stroke-miterlimit: 4; is-custom-font: none; font-file-url: none; fill: rgb(177,6,15); fill-rule: nonzero; opacity: 1;" transform=" translate(229.7, 32.7784)" d="M -322 -412.8 V -33 c 0 208.9 0.2 380 0.5 380.3 c 0.3 0.3 13.2 -1 28.8 -2.7 c 15.6 -1.7 37.1 -3.9 47.8 -4.8 c 16.4 -1.4 65.6 -4.5 71.2 -4.6 c 1.7 0 1.8 -8.5 2 -160.9 l 0.3 -160.9 l 11.9 33.6 c 1.8 5.2 2.4 6.8 4.2 11.9 l 17.9 -373.9 c -3.8 -10.7 -1.8 -5.1 -6.1 -17.3 c -14.6 -41.3 -27 -76.2 -27.5 -77.8 l -1 -2.8 h -150 z" stroke-linecap="round"/>
</g>
		<g transform="matrix(3.2741 0 0 3.2741 388.2963 0.9405)" id="path5715">
<path style="stroke: rgb(0,0,0); stroke-width: 1; stroke-dasharray: none; stroke-linecap: butt; stroke-dashoffset: 0; stroke-linejoin: miter; stroke-miterlimit: 4; is-custom-font: none; font-file-url: none; fill: rgb(177,6,15); fill-rule: nonzero; opacity: 1;" transform=" translate(-6.0174, 32.481)" d="M -52.5 -412.3 l -0.3 168 l -0.3 168 l -13.8 -39 v -0.1 l -17.9 374 c 17.6 49.6 27 76.1 27.1 76.2 c 0.1 0.1 10.1 0.7 22.2 1.3 c 36.6 1.8 82 5.7 116.5 10 c 8 1 14.8 1.5 15.3 1.1 s 0.6 -171.4 0.5 -380.1 l -0.3 -379.4 h -149 z" stroke-linecap="round"/>
</g>
		<g transform="matrix(3.2741 0 0 3.2741 -383.4659 -0.0333)" id="path5717">
<path style="stroke: rgb(0,0,0); stroke-width: 1; stroke-dasharray: none; stroke-linecap: butt; stroke-dashoffset: 0; stroke-linejoin: miter; stroke-miterlimit: 4; is-custom-font: none; font-file-url: none; fill: rgb(177,6,15); fill-rule: nonzero; opacity: 1;" transform=" translate(229.7, 32.7784)" d="M -322 -412.8 V -33 c 0 208.9 0.2 380 0.5 380.3 c 0.3 0.3 13.2 -1 28.8 -2.7 c 15.6 -1.7 37.1 -3.9 47.8 -4.8 c 16.4 -1.4 65.6 -4.5 71.2 -4.6 c 1.7 0 1.8 -8.5 2 -160.9 l 0.3 -160.9 l 11.9 33.6 c 1.8 5.2 2.4 6.8 4.2 11.9 l 17.9 -373.9 c -3.8 -10.7 -1.8 -5.1 -6.1 -17.3 c -14.6 -41.3 -27 -76.2 -27.5 -77.8 l -1 -2.8 h -150 z" stroke-linecap="round"/>
</g>
		<g transform="matrix(3.2741 0 0 3.2741 -0.2325 -0.0417)" id="path5719">
<radialGradient id="SVGID_4" gradientUnits="userSpaceOnUse" gradientTransform="matrix(0.0707 -0.0245 -0.897 -2.5906 -1526.665 25.194)" cx="18038.016" cy="-146.44" r="368.717" fx="18038.016" fy="-146.44">
<stop offset="0%" style="stop-color:rgb(0,0,0);stop-opacity: 1"/>
<stop offset="100%" style="stop-color:rgb(0,0,0);stop-opacity: 0"/>
</radialGradient>
<path style="stroke: none; stroke-width: 1; stroke-dasharray: none; stroke-linecap: butt; stroke-dashoffset: 0; stroke-linejoin: miter; stroke-miterlimit: 4; is-custom-font: none; font-file-url: none; fill: url(#SVGID_4); fill-rule: nonzero; opacity: 1;" transform=" translate(112.65, 32.781)" d="M -322 -412.8 v 213.2 l 150.2 398.4 c 0 -9.1 0 -14.1 0.1 -24.5 l 0.3 -160.9 l 11.9 33.6 C -93.5 234.2 -58 334.6 -57.8 334.8 c 0.1 0.1 10.1 0.7 22.2 1.3 c 36.6 1.8 82 5.7 116.5 10 c 8 1 14.8 1.5 15.3 1.1 c 0.3 -0.3 0.5 -84.1 0.5 -202.4 L -52.7 -285 l -0.1 40.7 l -0.3 168 l -13.8 -39 c -13.5 -38.1 -22.5 -63.6 -76.8 -217 c -14.6 -41.3 -27 -76.2 -27.5 -77.8 l -1 -2.8 H -322 v 0.1 z" stroke-linecap="round"/>
</g>
		<g transform="matrix(3.2741 0 0 3.2741 -1.2147 -0.0417)" id="path5721">
<path style="stroke: none; stroke-width: 1; stroke-dasharray: none; stroke-linecap: butt; stroke-dashoffset: 0; stroke-linejoin: miter; stroke-miterlimit: 4; is-custom-font: none; font-file-url: none; fill: rgb(229,9,20); fill-rule: nonzero; opacity: 1;" transform=" translate(112.95, 32.781)" d="M -322 -412.8 l 150.5 426.5 v -0.2 l 11.9 33.6 C -93.5 234.2 -58 334.6 -57.8 334.8 c 0.1 0.1 10.1 0.7 22.2 1.3 c 36.6 1.8 82 5.7 116.5 10 c 7.9 1 14.8 1.5 15.2 1.1 L -53.1 -76.4 v 0.1 l -13.8 -39 c -13.5 -38.1 -22.5 -63.6 -76.8 -217 c -14.6 -41.3 -27 -76.2 -27.5 -77.8 l -1 -2.8 h -74.9 l -74.9 0.1 z" stroke-linecap="round"/>
</g>
</g>
</g>
</svg>