<?xml version="1.0" encoding="UTF-8" standalone="no"?>
<svg
   version="1.1"
   width="1000"
   height="1000"
   viewBox="0 0 1000 1000"
   xml:space="preserve"
   id="svg11"
   sodipodi:docname="Untitled.svg"
   inkscape:version="1.2.2 (732a01da63, 2022-12-09)"
   xmlns:inkscape="http://www.inkscape.org/namespaces/inkscape"
   xmlns:sodipodi="http://sodipodi.sourceforge.net/DTD/sodipodi-0.dtd"
   xmlns="http://www.w3.org/2000/svg"
   xmlns:svg="http://www.w3.org/2000/svg"><sodipodi:namedview
   id="namedview13"
   pagecolor="#ffffff"
   bordercolor="#000000"
   borderopacity="0.25"
   inkscape:showpageshadow="2"
   inkscape:pageopacity="0.0"
   inkscape:pagecheckerboard="0"
   inkscape:deskcolor="#d1d1d1"
   showgrid="false"
   inkscape:zoom="1.3350176"
   inkscape:cx="392.12966"
   inkscape:cy="468.53315"
   inkscape:window-width="2560"
   inkscape:window-height="1511"
   inkscape:window-x="-9"
   inkscape:window-y="-9"
   inkscape:window-maximized="1"
   inkscape:current-layer="svg11" />
<desc
   id="desc2">Created with Fabric.js 3.5.0</desc>
<defs
   id="defs4">
</defs>

<g
   transform="matrix(20.3064 0 0 20.3064 498.6017 498.5953)"
   id="223435">
<path
   style="stroke: none; stroke-width: 1; stroke-dasharray: none; stroke-linecap: butt; stroke-dashoffset: 0; stroke-linejoin: miter; stroke-miterlimit: 4; is-custom-font: none; font-file-url: none; fill: rgb(44,213,196); fill-rule: nonzero; opacity: 1;"
   transform=" translate(-32.0539, -32.0536)"
   d="M 54.869 49.447 l -10.64 -9.789 c 2.364 -3.284 3.772 -7.303 3.772 -11.658 c 0 -11.046 -8.954 -20 -20 -20 S 8 16.954 8 28 s 8.954 20 20 20 c 4.356 0 8.374 -1.408 11.658 -3.772 l 9.789 10.64 c 1.477 1.606 3.994 1.658 5.537 0.115 s 1.49 -4.06 -0.115 -5.537 Z m -26.869 -8.447 c -7.18 0 -13 -5.82 -13 -13 s 5.82 -13 13 -13 s 13 5.82 13 13 s -5.82 13 -13 13 Z"
   stroke-linecap="round"
   id="path8" />
</g>
</svg>
